# xmcd
#
# Track frame offsets:
#	150
#	25612
#	45410
#	76517
#	98932
#	125590
#	151887
#	175100
#	201642
#	227855
#
# Disc length: 3335 seconds
#
# Revision: 992567685
# Processed by: cddbd v1.5.2PL0 Copyright (c) Steve Scherf et al.
# Submitted via: EZCDAudioConverter 8.0.2.1
#
DISCID=730d050a
DTITLE=Mạnh Quỳnh - Hương Tình Cũ
DYEAR=1998
DGENRE=Contemporary Folk
TTITLE0=Con đuòng xưa em đi
TTITLE1=Đường về khuya
TTITLE2=Tâm sự với em
TTITLE3=Hương Tình Cũ
TTITLE4=Căn nhà màu tím
TTITLE5=Hận tình
TTITLE6=Nếu mai này
TTITLE7=Chuyến xe ba người
TTITLE8=Thói đời
TTITLE9=Hai lố mộng
EXTD=
EXTT0=
EXTT1=
EXTT2=
EXTT3=
EXTT4=
EXTT5=
EXTT6=
EXTT7=
EXTT8=
EXTT9=
PLAYORDER=
